<svg xmlns="http://www.w3.org/2000/svg" viewBox="0 0 100 100" id="spaceship"><path d="M75.82 66.637V29.958c0-8.443-7.278-13.094-7.588-13.288a1.5 1.5 0 0 0-1.592 0c-.177.111-2.63 1.685-4.7 4.585C60.804 10.123 51.229 3.999 50.796 3.729a1.5 1.5 0 0 0-1.592 0c-.433.271-10.008 6.394-11.145 17.527-2.07-2.901-4.523-4.474-4.7-4.585a1.5 1.5 0 0 0-1.592 0c-.31.194-7.588 4.845-7.588 13.288v36.678c-5.55 4.759-10.603 10.544-10.603 19.677a1.5 1.5 0 0 0 1.5 1.5h4.732l-1.654 6.833a1.5 1.5 0 0 0 1.458 1.853H31.37a1.5 1.5 0 0 0 1.458-1.852l-1.653-6.834h6.387l-1.577 6.85a1.502 1.502 0 0 0 1.462 1.837h25.106a1.5 1.5 0 0 0 1.462-1.837l-1.577-6.85h6.387l-1.653 6.834A1.5 1.5 0 0 0 68.63 96.5h11.758a1.5 1.5 0 0 0 1.458-1.853l-1.654-6.833h4.732a1.5 1.5 0 0 0 1.5-1.5c-.001-9.133-5.053-14.919-10.604-19.677zM67.437 19.8c1.672 1.337 5.384 4.898 5.384 10.159v34.209l-1.021-.814c-5.229-4.161-9.746-7.754-9.746-12.738l-.001-.055V29.959c0-5.262 3.714-8.824 5.384-10.159zm-8.384 49.123a6.763 6.763 0 0 0-9.052 1.381 6.763 6.763 0 0 0-9.052-1.381V37.081c0-8.972 6.709-14.818 9.053-16.586 2.346 1.77 9.053 7.616 9.053 16.586v31.842zm-18.106 5.623c0-2.083 1.694-3.776 3.776-3.776s3.776 1.694 3.776 3.776v10.267h-7.553V74.546zm10.553 0c0-2.083 1.694-3.776 3.776-3.776s3.776 1.694 3.776 3.776v10.267H51.5V74.546zM50.002 6.835c2.347 1.76 9.051 7.581 9.051 16.588v2.738c-3.232-5.566-7.956-8.586-8.257-8.774a1.5 1.5 0 0 0-1.592 0c-.301.188-5.025 3.208-8.257 8.774v-2.738c0-8.975 6.714-14.822 9.055-16.588zM27.18 29.958c0-5.261 3.712-8.822 5.384-10.158 1.672 1.336 5.384 4.897 5.384 10.158V50.56l-.001.055c0 4.984-4.517 8.578-9.746 12.738l-1.021.814V29.958zm-.557 38.537c.007-.006.016-.009.024-.015a155.131 155.131 0 0 1 3.417-2.772c2.96-2.355 5.833-4.642 7.883-7.225v.002l.001 26.328H16.632c.535-7.301 4.961-12.084 9.991-16.318zM29.465 93.5H21.52l1.377-5.687h5.192l1.376 5.687zm11.177-5.687H48.5V93.5h-9.168l1.31-5.687zM51.5 93.5v-5.687h7.858l1.31 5.687H51.5zm26.98 0h-7.945l1.376-5.687h5.192L78.48 93.5zm-.196-8.687H62.052l.001-26.328v-.002c2.05 2.583 4.923 4.87 7.883 7.225 1.131.899 2.283 1.817 3.417 2.772.007.006.016.009.023.015 5.03 4.234 9.456 9.017 9.991 16.318h-5.083z"></path><path d="M42.882 35.509c0 .472.062.954.187 1.433a1.5 1.5 0 0 0 2.37.812c1.124-.869 2.786-1.368 4.562-1.368s3.438.499 4.562 1.368a1.503 1.503 0 0 0 1.404.232 1.5 1.5 0 0 0 .966-1.044c.124-.479.187-.961.187-1.433 0-3.502-3.193-6.352-7.118-6.352s-7.12 2.849-7.12 6.352zm10.768-1.551c-1.134-.373-2.379-.572-3.65-.572s-2.517.2-3.65.572c.688-1.07 2.066-1.801 3.65-1.801s2.962.731 3.65 1.801z"></path></svg>